# xmcd
#
# Track frame offsets:
#	183
#	20308
#	32185
#	42188
#	53385
#	69360
#	78470
#	95005
#	106148
#	118100
#	129300
#	142633
#	159808
#	174435
#
# Disc length: 2514 seconds
#
# Revision: 2
# Processed by: cddbd v1.5.2PL0 Copyright (c) Steve Scherf et al.
# Submitted via: EZCDAudioConverter 1.0.4.1
#
DISCID=a009d00e
DTITLE=Moravanka - Ein Schönes Land - Mähren
DYEAR=1990
DGENRE=Blasmusik
TTITLE0=Morava Krásná Zem
TTITLE1=Pálavské Vršky
TTITLE2=Frajír, Milý Frajír
TTITLE3=Počkaj Synečku
TTITLE4=Jatelinka Usušená
TTITLE5=V Hodoníně
TTITLE6=Nechoď K Nám
TTITLE7=Fanynka
TTITLE8=Bílá Lálija
TTITLE9=Zaletěl Holúbek
TTITLE10=V Našej Zahrádce
TTITLE11=Hromy Bijú
TTITLE12=Nepůjdu Já Za Masára
TTITLE13=Kamarádi Moji Milí
EXTD=
EXTT0=
EXTT1=
EXTT2=
EXTT3=
EXTT4=
EXTT5=
EXTT6=
EXTT7=
EXTT8=
EXTT9=
EXTT10=
EXTT11=
EXTT12=
EXTT13=
PLAYORDER=
